<svg clip-rule="evenodd" fill-rule="evenodd" stroke-linejoin="round" stroke-miterlimit="2" viewBox="0 0 2000 2000" xmlns="http://www.w3.org/2000/svg">
	<style>@media not (prefers-color-scheme: dark) { #blackground { display: none; } #letter { fill: black; stroke: black; } #outline { fill: "#05f"; } }</style>
	<path id="blackground" d="m2000 110.523c0-61-49.523-110.523-110.523-110.523h-1778.95c-61 0-110.523 49.523-110.523 110.523v1778.95c0 61 49.523 110.523 110.523 110.523h1778.95c61 0 110.523-49.523 110.523-110.523v-1778.95z"/>
	
	<path id="outline" d="m2000 110.523c0-61-49.523-110.523-110.523-110.523h-1778.95c-61 0-110.523 49.523-110.523 110.523v1778.95c0 61 49.523 110.523 110.523 110.523h1778.95c61 0 110.523-49.523 110.523-110.523v-1778.95zm-60 0v1778.95c0 27.885-22.638 50.523-50.523 50.523h-1778.95c-27.885 0-50.523-22.638-50.523-50.523v-1778.95c0-27.885 22.638-50.523 50.523-50.523h1778.95c27.885 0 50.523 22.638 50.523 50.523z" fill="#09f"/>
	
	<path id="letter" d="m495.208 597.479h89.692l172.822 685.817 199.073-685.817h87.504l197.979 685.817 172.822-685.817h89.692l-206.73 805.042h-94.067l-203.448-683.629-204.542 683.629h-94.067z" fill="#fff" fill-rule="nonzero"/>
</svg>